<svg xmlns="http://www.w3.org/2000/svg" width="640" height="500" viewBox="0 0 160 125" role="img" aria-label="Vehicle fluid service illustration">
<defs><linearGradient id="bg" x1="0" y1="0" x2="160" y2="100" gradientUnits="userSpaceOnUse"><stop stop-color="#EAF8FF"/><stop offset="1" stop-color="#CBEAFF"/></linearGradient><linearGradient id="orb" x1="35" y1="20" x2="128" y2="92"><stop stop-color="#72C7F5"/><stop offset="1" stop-color="#3B86C8"/></linearGradient></defs>
<rect width="160" height="125" rx="16" fill="url(#bg)"/><circle cx="133" cy="20" r="29" fill="#fff" opacity=".44"/><circle cx="19" cy="91" r="31" fill="#8ED5FB" opacity=".28"/><circle cx="80" cy="51" r="38" fill="url(#orb)" opacity=".18"/>
<g fill="none" stroke="#002060" stroke-width="4" stroke-linecap="round" stroke-linejoin="round"><path d="M48 39h43l10 12v52H48z"/><path d="M91 39v15h10M59 65h31M59 80h22"/><path d="M116 53c0 0-14 17-14 28a14 14 0 0028 0c0-11-14-28-14-28z"/><path d="M110 84c2 5 8 6 12 3"/></g></svg>