<svg xmlns="http://www.w3.org/2000/svg" width="160" height="160" viewBox="0 0 160 160" role="img" aria-labelledby="title desc">
<title id="title">Meridian Business Solutions logo</title><desc id="desc">A modern blue compass and letter M mark.</desc>
<defs><linearGradient id="g" x1="20" y1="18" x2="142" y2="146" gradientUnits="userSpaceOnUse"><stop stop-color="#8BD4FF"/><stop offset="1" stop-color="#2D7CC7"/></linearGradient><filter id="s" x="-20%" y="-20%" width="140%" height="140%"><feDropShadow dx="0" dy="5" stdDeviation="6" flood-color="#002060" flood-opacity=".16"/></filter></defs>
<rect x="10" y="10" width="140" height="140" rx="34" fill="#F4FBFF" filter="url(#s)"/>
<circle cx="80" cy="68" r="43" fill="url(#g)"/>
<circle cx="80" cy="68" r="32" fill="#F8FCFF" opacity=".97"/>
<path d="M80 29l7 30 29 9-29 8-7 31-7-31-29-8 29-9 7-30z" fill="#002060" opacity=".14"/>
<path d="M54 88V49h10l16 22 16-22h10v39H94V67L80 86 66 67v21H54z" fill="#002060"/>
<text x="80" y="126" text-anchor="middle" font-family="Arial,Helvetica,sans-serif" font-size="12" font-weight="700" fill="#002060">MERIDIAN</text>
<text x="80" y="141" text-anchor="middle" font-family="Arial,Helvetica,sans-serif" font-size="7.4" letter-spacing="1.3" fill="#3979B3">BUSINESS SOLUTIONS</text>
</svg>